<?xml version="1.0" encoding="UTF-8" standalone="no"?>
<!-- Created with Inkscape (http://www.inkscape.org/) -->

<svg
   xmlns:dc="http://purl.org/dc/elements/1.1/"
   xmlns:cc="http://creativecommons.org/ns#"
   xmlns:rdf="http://www.w3.org/1999/02/22-rdf-syntax-ns#"
   xmlns:svg="http://www.w3.org/2000/svg"
   xmlns="http://www.w3.org/2000/svg"
   xmlns:xlink="http://www.w3.org/1999/xlink"
   xmlns:sodipodi="http://sodipodi.sourceforge.net/DTD/sodipodi-0.dtd"
   xmlns:inkscape="http://www.inkscape.org/namespaces/inkscape"
   width="48"
   height="48"
   id="svg2"
   version="1.1"
   inkscape:version="0.48.3.1 r9886"
   sodipodi:docname="mime-text-csv.svg"
   inkscape:export-filename="/usr/share/multimag/art_source/mime-text-csv.png"
   inkscape:export-xdpi="330"
   inkscape:export-ydpi="330">
  <defs
     id="defs4">
    <linearGradient
       id="linearGradient3887">
      <stop
         id="stop3889"
         offset="0"
         style="stop-color:#a6a6a6;stop-opacity:1" />
      <stop
         id="stop3891"
         offset="1"
         style="stop-color:#404040;stop-opacity:1" />
    </linearGradient>
    <linearGradient
       id="linearGradient3867">
      <stop
         style="stop-color:#ffffff;stop-opacity:1;"
         offset="0"
         id="stop3869" />
      <stop
         style="stop-color:#e0e0e0;stop-opacity:1;"
         offset="1"
         id="stop3871" />
    </linearGradient>
    <filter
       inkscape:collect="always"
       id="filter3782">
      <feGaussianBlur
         inkscape:collect="always"
         stdDeviation="0.95"
         id="feGaussianBlur3784" />
    </filter>
    <filter
       inkscape:collect="always"
       id="filter3843"
       x="-0.204"
       width="1.408"
       y="-0.204"
       height="1.408">
      <feGaussianBlur
         inkscape:collect="always"
         stdDeviation="0.85"
         id="feGaussianBlur3845" />
    </filter>
    <linearGradient
       inkscape:collect="always"
       xlink:href="#linearGradient3867"
       id="linearGradient3873"
       x1="20"
       y1="1022.3622"
       x2="40"
       y2="1052.3622"
       gradientUnits="userSpaceOnUse" />
    <linearGradient
       inkscape:collect="always"
       xlink:href="#linearGradient3887"
       id="linearGradient3885"
       x1="25"
       y1="1037.3622"
       x2="35"
       y2="1052.3622"
       gradientUnits="userSpaceOnUse" />
    <filter
       inkscape:collect="always"
       id="filter4013">
      <feGaussianBlur
         inkscape:collect="always"
         stdDeviation="0.24885988"
         id="feGaussianBlur4015" />
    </filter>
    <filter
       inkscape:collect="always"
       id="filter4017">
      <feGaussianBlur
         inkscape:collect="always"
         stdDeviation="0.24885988"
         id="feGaussianBlur4019" />
    </filter>
    <filter
       inkscape:collect="always"
       id="filter4021">
      <feGaussianBlur
         inkscape:collect="always"
         stdDeviation="0.24885988"
         id="feGaussianBlur4023" />
    </filter>
  </defs>
  <sodipodi:namedview
     id="base"
     pagecolor="#ffffff"
     bordercolor="#666666"
     borderopacity="1.0"
     inkscape:pageopacity="0.0"
     inkscape:pageshadow="2"
     inkscape:zoom="11.2"
     inkscape:cx="-2.8139756"
     inkscape:cy="28.43822"
     inkscape:document-units="px"
     inkscape:current-layer="layer1"
     showgrid="true"
     inkscape:window-width="1920"
     inkscape:window-height="984"
     inkscape:window-x="-4"
     inkscape:window-y="-4"
     inkscape:window-maximized="1">
    <inkscape:grid
       type="xygrid"
       id="grid2985"
       empspacing="5"
       visible="true"
       enabled="true"
       snapvisiblegridlinesonly="true" />
  </sodipodi:namedview>
  <metadata
     id="metadata7">
    <rdf:RDF>
      <cc:Work
         rdf:about="">
        <dc:format>image/svg+xml</dc:format>
        <dc:type
           rdf:resource="http://purl.org/dc/dcmitype/StillImage" />
        <dc:title />
      </cc:Work>
    </rdf:RDF>
  </metadata>
  <g
     inkscape:label="Layer 1"
     inkscape:groupmode="layer"
     id="layer1"
     transform="translate(0,-1004.3622)">
    <path
       style="fill:#e4e4e4;fill-opacity:1;fill-rule:evenodd;stroke:#a6a6a6;stroke-width:1px;stroke-linecap:butt;stroke-linejoin:round;stroke-opacity:1;filter:url(#filter3782)"
       d="m 12,1007.3622 0,46 30,0 0,-36 -10,0 0,-10 -20,0 z"
       id="rect2987-5"
       inkscape:connector-curvature="0"
       transform="matrix(0.93333333,0,0,0.97826087,4.8,21.899178)" />
    <path
       style="fill:#e4e4e4;fill-opacity:1;stroke:#a6a6a6;stroke-width:1px;stroke-linecap:butt;stroke-linejoin:round;stroke-opacity:1;filter:url(#filter3843)"
       d="m 34,1007.3622 0,10 10,0 -10,-10"
       id="path3780-2"
       inkscape:connector-curvature="0" />
    <path
       inkscape:connector-curvature="0"
       style="fill:url(#linearGradient3873);fill-opacity:1;fill-rule:evenodd;stroke:url(#linearGradient3885);stroke-width:1.5;stroke-linecap:butt;stroke-linejoin:round;stroke-miterlimit:4;stroke-opacity:1;stroke-dasharray:none"
       d="m 4,1005.3622 0,45 38,0 0,-35 -10,0 0,-10 z"
       id="rect2987"
       sodipodi:nodetypes="ccccccc" />
    <path
       style="fill:#e6e6e6;fill-opacity:1;stroke:#a6a6a6;stroke-width:1.5;stroke-linecap:butt;stroke-linejoin:round;stroke-miterlimit:4;stroke-opacity:1;stroke-dasharray:none"
       d="m 32,1005.3622 0,10 10,0 -10,-10"
       id="path3780"
       inkscape:connector-curvature="0" />
    <path
       style="fill:#00a2a7;fill-opacity:1;stroke:none"
       d="m 10,1017.3622 38,0 0,20 -38,0 z"
       id="rect3912"
       inkscape:connector-curvature="0"
       sodipodi:nodetypes="ccccc" />
    <path
       inkscape:connector-curvature="0"
       id="path3920"
       style="font-size:20px;font-style:normal;font-variant:normal;font-weight:bold;font-stretch:normal;line-height:172.00000286000002347%;letter-spacing:0.01000000000000000px;word-spacing:0px;fill:#ffffff;fill-opacity:1;stroke:none;font-family:DejaVu Sans Mono;-inkscape-font-specification:DejaVu Sans Mono Bold;filter:url(#filter4021)"
       d="m 21.774796,1033.9423 c -0.491031,0.2343 -1.006601,0.4101 -1.546712,0.5273 -0.540131,0.1172 -1.10831,0.1758 -1.70454,0.1758 -2.118404,0 -3.735259,-0.6478 -4.850571,-1.9434 -1.115317,-1.2955 -1.672974,-3.1673 -1.672973,-5.6152 -10e-7,-2.4544 0.557656,-4.3294 1.672973,-5.625 1.115312,-1.2956 2.732167,-1.9434 4.850571,-1.9434 0.59623,0 1.167916,0.059 1.715061,0.1758 0.547126,0.1172 1.059189,0.293 1.536191,0.5274 l 0,3.2031 c -0.533118,-0.4557 -1.052195,-0.7878 -1.557234,-0.9961 -0.498043,-0.2148 -1.013613,-0.3223 -1.546712,-0.3223 -1.136366,0 -1.995649,0.42 -2.577852,1.2598 -0.575199,0.8333 -0.862796,2.0736 -0.862791,3.7207 -5e-6,1.6406 0.287592,2.8809 0.862791,3.7207 0.582203,0.8333 1.441486,1.25 2.577852,1.25 0.533099,0 1.048669,-0.1042 1.546712,-0.3125 0.505039,-0.2148 1.024116,-0.5501 1.557234,-1.0059 l 0,3.2032" />
    <path
       inkscape:connector-curvature="0"
       id="path3922"
       style="font-size:20px;font-style:normal;font-variant:normal;font-weight:bold;font-stretch:normal;line-height:172.00000286000002347%;letter-spacing:0.01000000000000000px;word-spacing:0px;fill:#ffffff;fill-opacity:1;stroke:none;font-family:DejaVu Sans Mono;-inkscape-font-specification:DejaVu Sans Mono Bold;filter:url(#filter4017)"
       d="m 28.125782,1028.0438 c -1.564251,-0.5534 -2.623449,-1.1328 -3.177598,-1.7383 -0.554152,-0.612 -0.831226,-1.4323 -0.831225,-2.4609 -1e-6,-1.3216 0.455944,-2.36 1.367839,-3.1153 0.91189,-0.7551 2.163989,-1.1328 3.756299,-1.1328 0.722493,0 1.444993,0.078 2.167501,0.2344 0.722491,0.1498 1.437976,0.3744 2.146456,0.6738 l 0,2.8125 c -0.666394,-0.4362 -1.343298,-0.7682 -2.030715,-0.9961 -0.687435,-0.2278 -1.367848,-0.3417 -2.041238,-0.3418 -0.750566,1e-4 -1.325759,0.14 -1.725584,0.42 -0.399835,0.2799 -0.59975,0.6803 -0.599745,1.2011 -5e-6,0.4037 0.143794,0.739 0.431396,1.0059 0.294607,0.2604 0.904873,0.5501 1.830801,0.8691 l 1.336274,0.4688 c 1.262613,0.4297 2.192042,0.9993 2.78829,1.709 0.596227,0.7096 0.894345,1.6048 0.894357,2.6855 -1.2e-5,1.4714 -0.469987,2.5716 -1.409928,3.3008 -0.932946,0.7227 -2.346379,1.084 -4.240304,1.084 -0.778622,0 -1.560745,-0.088 -2.346371,-0.2637 -0.77862,-0.1693 -1.532685,-0.4232 -2.262197,-0.7617 l 0,-2.9785 c 0.827716,0.5469 1.627375,0.9538 2.39898,1.2207 0.778612,0.2669 1.546707,0.4004 2.304285,0.4004 0.764581,0 1.357311,-0.1595 1.778192,-0.4785 0.420866,-0.3256 0.631302,-0.778 0.631311,-1.3575 -9e-6,-0.4362 -0.1403,-0.817 -0.420874,-1.1425 -0.280591,-0.3321 -0.687435,-0.5925 -1.220534,-0.7813 l -1.525668,-0.5371" />
    <path
       inkscape:connector-curvature="0"
       id="path3924"
       style="font-size:20px;font-style:normal;font-variant:normal;font-weight:bold;font-stretch:normal;line-height:172.00000286000002347%;letter-spacing:0.01000000000000000px;word-spacing:0px;fill:#ffffff;fill-opacity:1;stroke:none;font-family:DejaVu Sans Mono;-inkscape-font-specification:DejaVu Sans Mono Bold;filter:url(#filter4013)"
       d="m 40.674641,1031.9598 2.767246,-12.1777 3.124988,0 -3.735255,14.5801 -4.303435,0 -3.735256,-14.5801 3.124989,0 2.756723,12.1777" />
  </g>
</svg>
