<?xml version="1.0" encoding="UTF-8" standalone="no"?>
<!-- Created with Inkscape (http://www.inkscape.org/) -->

<svg
   xmlns:dc="http://purl.org/dc/elements/1.1/"
   xmlns:cc="http://creativecommons.org/ns#"
   xmlns:rdf="http://www.w3.org/1999/02/22-rdf-syntax-ns#"
   xmlns:svg="http://www.w3.org/2000/svg"
   xmlns="http://www.w3.org/2000/svg"
   xmlns:xlink="http://www.w3.org/1999/xlink"
   xmlns:sodipodi="http://sodipodi.sourceforge.net/DTD/sodipodi-0.dtd"
   xmlns:inkscape="http://www.inkscape.org/namespaces/inkscape"
   width="300"
   height="300"
   id="svg2"
   version="1.1"
   inkscape:version="0.48.3.1 r9886"
   sodipodi:docname="pie.svg"
   inkscape:export-filename="/home/user/Desktop/pie.png"
   inkscape:export-xdpi="6.5999999"
   inkscape:export-ydpi="6.5999999">
  <defs
     id="defs4">
    <linearGradient
       id="linearGradient3986">
      <stop
         style="stop-color:#6a0000;stop-opacity:1"
         offset="0"
         id="stop3988" />
      <stop
         id="stop3994"
         offset="0.21428572"
         style="stop-color:#cb1305;stop-opacity:1" />
      <stop
         style="stop-color:#ed494e;stop-opacity:1"
         offset="0.71428573"
         id="stop3996" />
      <stop
         style="stop-color:#ffdbd0;stop-opacity:1"
         offset="1"
         id="stop3990" />
    </linearGradient>
    <linearGradient
       inkscape:collect="always"
       xlink:href="#linearGradient3986"
       id="linearGradient3992"
       x1="310"
       y1="322.36218"
       x2="40"
       y2="42.362183"
       gradientUnits="userSpaceOnUse" />
    <linearGradient
       inkscape:collect="always"
       xlink:href="#linearGradient3986"
       id="linearGradient4091"
       gradientUnits="userSpaceOnUse"
       x1="310"
       y1="322.36218"
       x2="40"
       y2="42.362183" />
  </defs>
  <sodipodi:namedview
     id="base"
     pagecolor="#ffffff"
     bordercolor="#666666"
     borderopacity="1.0"
     inkscape:pageopacity="0.0"
     inkscape:pageshadow="2"
     inkscape:zoom="0.7"
     inkscape:cx="-48.363749"
     inkscape:cy="70.537057"
     inkscape:document-units="px"
     inkscape:current-layer="layer1"
     showgrid="true"
     inkscape:window-width="1272"
     inkscape:window-height="944"
     inkscape:window-x="640"
     inkscape:window-y="0"
     inkscape:window-maximized="0">
    <inkscape:grid
       type="xygrid"
       id="grid3135"
       empspacing="5"
       visible="true"
       enabled="true"
       snapvisiblegridlinesonly="true" />
  </sodipodi:namedview>
  <metadata
     id="metadata7">
    <rdf:RDF>
      <cc:Work
         rdf:about="">
        <dc:format>image/svg+xml</dc:format>
        <dc:type
           rdf:resource="http://purl.org/dc/dcmitype/StillImage" />
        <dc:title></dc:title>
      </cc:Work>
    </rdf:RDF>
  </metadata>
  <g
     inkscape:label="Layer 1"
     inkscape:groupmode="layer"
     id="layer1"
     transform="translate(0,-752.36085)">
    <g
       id="g4085"
       transform="matrix(0.98579324,0,0,0.97067424,-24.398383,727.04526)">
      <path
         d="m 176.65625,26.643433 c -66.20704,0.01718 -132.42836,0.452945 -135.59375,1.25 -5.7163,1.43938 -11.3729,6.82936 -13.0625,12.46875 -1.77913,5.938196 -1.77913,271.780547 0,277.718747 1.48568,4.95876 7.14032,10.84432 11.84375,12.34375 5.2354,1.669 267.7522,1.7284 273.3125,0.0625 5.2375,-1.56921 10.83705,-7.1687 12.40625,-12.40625 2.0973,-7.00005 1.7398,-272.480877 -0.375,-278.687497 -1.9191,-5.63209 -6.86105,-10.05582 -12.96875,-11.59375 -3.15885,-0.795385 -69.35546,-1.173433 -135.5625,-1.15625 z"
         style="fill:url(#linearGradient4091);fill-opacity:1"
         inkscape:connector-curvature="0"
         id="path4087" />
      <path
         inkscape:connector-curvature="0"
         id="rect3155"
         d="m 175.46875,40.84375 c -3.41865,0.07151 -6.96375,2.371037 -12.0625,7.03125 -11.68336,10.678263 -13.23621,20.350236 -4.84375,29.625 4.10105,4.532282 6.64672,4.239912 6.65625,-0.75 0.0207,-5.568753 7.30945,-13.875 12.1875,-13.875 4.65836,0 9.50876,4.900783 11.5625,11.65625 1.82845,6.014192 4.48565,5.033139 7.375,-2.71875 2.93266,-7.868212 -0.0212,-15.491972 -9.4375,-24.40625 -4.70827,-4.454864 -8.01881,-6.634078 -11.4375,-6.5625 z m -88.15625,0.4375 c -3.418651,0.07151 -6.995007,2.371037 -12.09375,7.03125 -11.683362,10.678263 -13.236212,20.350236 -4.84375,29.625 4.101056,4.532282 6.67797,4.239912 6.6875,-0.75 0.02066,-5.568753 7.278193,-13.875 12.15625,-13.875 4.65836,0 9.54001,4.900783 11.59375,11.65625 1.82845,6.014192 4.4544,5.033139 7.34375,-2.71875 2.93266,-7.868212 -0.0212,-15.491972 -9.4375,-24.40625 -4.708273,-4.454864 -7.987562,-6.634078 -11.40625,-6.5625 z m 177.15625,0.125 c -3.41865,0.07151 -6.96375,2.371037 -12.0625,7.03125 -11.68336,10.678263 -13.23621,20.350236 -4.84375,29.625 4.10105,4.532282 6.64672,4.239912 6.65625,-0.75 0.0207,-5.568753 7.2782,-13.875 12.15625,-13.875 4.65836,0 9.54001,4.900783 11.59375,11.65625 1.82845,6.014192 4.48565,5.033139 7.375,-2.71875 2.93266,-7.868212 -0.0525,-15.491972 -9.46875,-24.40625 -4.70827,-4.454864 -7.98756,-6.634078 -11.40625,-6.5625 z M 171.75,89.71875 c -6.89487,0.0034 -13.09201,0.320364 -15.65625,1.03125 -3.85606,1.069043 -4.34971,8.936033 -1.09375,17.40625 2.57497,6.6989 2.62841,6.69274 12.9375,1.53125 l 8.1875,-4.09375 4.875,4.1875 c 2.71583,2.28103 4.96875,5.49234 4.96875,7.125 0,4.42573 8.1185,15.1211 10.96875,14.4375 1.69959,-0.40761 2.66216,-6.36691 3.0625,-18.96875 0.38933,-12.2637 -0.24805,-19.048475 -1.84375,-20.4375 -1.5472,-1.346937 -14.91482,-2.224649 -26.40625,-2.21875 z m -88.15625,0.4375 c -6.894872,0.0034 -13.123259,0.320364 -15.6875,1.03125 -3.856057,1.069043 -4.349711,8.93603 -1.09375,17.40625 2.574967,6.6989 2.659665,6.69274 12.96875,1.53125 l 8.15625,-4.09375 4.90625,4.1875 c 2.715832,2.28103 4.9375,5.49234 4.9375,7.125 0,4.42573 8.1185,15.1211 10.96875,14.4375 1.69959,-0.40761 2.69341,-6.36691 3.09375,-18.96875 C 112.23308,100.5488 111.5957,93.764025 110,92.375 108.4528,91.028063 95.085179,90.150351 83.59375,90.15625 z m 177.15625,0.125 c -6.89487,0.0034 -13.12326,0.320364 -15.6875,1.03125 -3.85606,1.069043 -4.31846,8.93603 -1.0625,17.40625 2.57497,6.6989 2.62841,6.69274 12.9375,1.53125 l 8.15625,-4.0625 L 270,110.375 c 2.71583,2.28103 4.9375,5.46109 4.9375,7.09375 0,4.42573 8.14975,15.1211 11,14.4375 1.69959,-0.40761 2.66216,-6.36691 3.0625,-18.96875 0.38933,-12.2637 -0.24805,-19.048475 -1.84375,-20.4375 -1.5472,-1.346937 -14.91482,-2.224649 -26.40625,-2.21875 z m -86.875,24.1875 c -1.48881,0.0395 -3.3302,0.77682 -5.8125,2.1875 -2.99021,1.69926 -7.64986,3.0625 -10.34375,3.0625 -4.89816,0 -4.90625,0.0552 -4.90625,21.625 0,15.85591 0.69078,21.72652 2.59375,22.28125 4.89382,1.42664 37.02854,1.01634 41.03125,-0.53125 6.73466,-2.60402 5.50132,-25.40625 -1.375,-25.40625 -4.16051,0 -14.61173,-11.02489 -16.1875,-17.09375 -1.10108,-4.24039 -2.51865,-6.19089 -5,-6.125 z m -88.15625,0.4375 c -1.488812,0.0395 -3.361447,0.77682 -5.84375,2.1875 -2.990214,1.69926 -7.649855,3.0625 -10.34375,3.0625 -4.898159,0 -4.875,0.0552 -4.875,21.625 0,15.85591 0.65953,21.72652 2.5625,22.28125 4.89382,1.42664 37.05979,1.01634 41.0625,-0.53125 6.73466,-2.60402 5.47007,-25.40625 -1.40625,-25.40625 -4.16051,0 -14.580481,-11.02489 -16.15625,-17.09375 -1.101077,-4.24039 -2.518657,-6.19089 -5,-6.125 z m 177.15625,0.125 c -1.48881,0.0395 -3.36145,0.77682 -5.84375,2.1875 -2.99021,1.69926 -7.61861,3.0625 -10.3125,3.0625 -4.89816,0 -4.90625,0.0552 -4.90625,21.625 0,15.85591 0.65953,21.75777 2.5625,22.3125 4.89382,1.42664 37.05979,0.98509 41.0625,-0.5625 6.73466,-2.60402 5.47007,-25.375 -1.40625,-25.375 -4.16051,0 -14.58048,-11.05614 -16.15625,-17.125 -1.10108,-4.24039 -2.51865,-6.19089 -5,-6.125 z M 49,172.375 l 2.09375,46.78125 c 0.210719,4.70944 8.415832,-1.39454 14.15625,-4.5625 2.748145,-1.51664 7.339896,-4.20867 10.21875,-6 7.265415,-4.52078 13.431368,-3.69468 24.0625,3.1875 21.44587,5.27875 64.35604,-2.05214 73.3125,-7.84375 8.41686,-6.18983 12.28507,-5.68178 19.46875,2.65625 12.88995,14.96128 23.82375,15.66734 34.84375,2.21875 20.71217,-20.71217 25.73151,-14.96077 31.0625,-10.375 C 266.50619,206.40085 301,216.375 310,217.375 l 0,-45 -261,0 z m 132.375,37.09375 c -1.13875,0.24201 -4.39546,2.35008 -6.96875,4.09375 -30.09689,9.7427 -56.88627,20.13049 -77.75,7.15625 -10.8511,-6.94245 -12.778484,-7.11485 -20.84375,-2 -9.905335,6.28177 -14.135342,8.12216 -20.5,9.03125 l -6,0.84375 -0.375,21.53125 c -0.198484,11.83946 -0.01349,22.28785 0.34375,23.21875 0.526189,1.37126 24.394315,1.61412 125.9375,1.34375 l 133.625,-0.3125 0,-45.78125 -15.375,-1 c -7.70084,-0.51258 -15.02785,-4.96058 -17.15625,-8.9375 -18.08499,-5.72512 -28.60999,-12.2844 -33.625,-5.71875 -4.50687,5.90877 -24.85439,14.96875 -30.375,14.96875 -21.40219,-4.61084 -11.04003,-4.61296 -30.5,-18.28125 0,-0.1687 -0.17471,-0.2121 -0.4375,-0.15625 z M 118,243.34375 c 0.24814,-0.0165 0.49909,0 0.75,0 2.58083,0 5.26091,1.1359 7.25,3.125 8.37632,8.37631 -2.48812,21.01129 -12.875,14.96875 -5.34291,-3.10823 -5.2723,-12.27431 0.125,-16.375 1.37938,-1.04799 3.01299,-1.60288 4.75,-1.71875 z M 211.625,244 c 4.44574,0 9.96875,5.36575 9.96875,9.625 0,8.51871 -11.07164,13.33458 -17,7.40625 C 198.76157,255.19911 203.38832,244 211.625,244 z m -98,42.375 c -51.145049,0.0343 -61.932189,0.28541 -62.90625,1.09375 -1.826453,1.51581 -1.304775,23.6303 0.90625,23.8125 10.682604,0.88028 50.28247,1.27705 123.75,1.09375 l 134.625,0 0,-25.90625 -134.625,0 c -24.23781,-0.0608 -44.70165,-0.1052 -61.75,-0.0937 z"
         style="fill:#ffffff;fill-opacity:1;fill-rule:nonzero;stroke:#a80004;stroke-opacity:1" />
      <path
         inkscape:connector-curvature="0"
         id="path3127-8"
         d="m 176.75,26.080933 c -33.10773,0.0086 -66.23324,0.132958 -91.46875,0.34375 -12.617757,0.105396 -23.266605,0.221508 -30.96875,0.375 -3.851072,0.07675 -6.952238,0.160845 -9.21875,0.25 -1.133256,0.04458 -2.040631,0.106883 -2.75,0.15625 -0.709369,0.04937 -1.099808,0.03952 -1.6875,0.1875 -6.559806,1.651777 -12.527483,7.364369 -14.46875,13.84375 -0.202783,0.67683 -0.194867,1.002302 -0.25,1.71875 -0.05513,0.716448 -0.10704,1.630747 -0.15625,2.78125 -0.09842,2.301005 -0.197686,5.473882 -0.28125,9.40625 -0.167127,7.864735 -0.295014,18.757549 -0.40625,31.6875 C 24.871278,112.69083 24.75,146.6665 24.75,180.64343 c 0,33.97693 0.121278,67.98385 0.34375,93.84375 0.111236,12.92995 0.239123,23.82276 0.40625,31.6875 0.08356,3.93237 0.18283,7.10524 0.28125,9.40625 0.04921,1.1505 0.101117,2.0648 0.15625,2.78125 0.05513,0.71645 0.04722,1.04192 0.25,1.71875 0.880619,2.93924 2.827842,5.82303 5.1875,8.28125 2.359658,2.45822 5.116531,4.49698 7.96875,5.40625 0.739234,0.23566 0.997804,0.19803 1.6875,0.25 0.689696,0.052 1.568798,0.0786 2.6875,0.125 2.237403,0.0928 5.334881,0.20204 9.1875,0.28125 7.705237,0.15841 18.434761,0.26784 31.15625,0.375 25.44298,0.21432 58.91277,0.33613 92.40625,0.34375 33.49348,0.008 66.98519,-0.0786 92.46875,-0.28125 12.74178,-0.10135 23.48318,-0.2514 31.21875,-0.40625 3.86779,-0.0774 6.99524,-0.1583 9.25,-0.25 1.12738,-0.0458 2.02066,-0.0735 2.71875,-0.125 0.69809,-0.0515 0.99527,-0.0426 1.6875,-0.25 6.11511,-1.83215 11.91786,-7.63482 13.75,-13.75 0.19079,-0.6368 0.21685,-1.03118 0.28125,-1.78125 0.0644,-0.75007 0.13075,-1.72622 0.1875,-2.90625 0.1135,-2.36007 0.21888,-5.58278 0.3125,-9.5625 0.18724,-7.95944 0.32327,-18.91568 0.4375,-31.90625 0.22847,-25.98115 0.32704,-60.04682 0.28125,-94.0625 -0.0458,-34.01568 -0.23298,-67.99295 -0.53125,-93.874997 -0.14913,-12.941024 -0.32269,-23.864601 -0.53125,-31.75 -0.10428,-3.942699 -0.22389,-7.11971 -0.34375,-9.4375 -0.0599,-1.158895 -0.12074,-2.082826 -0.1875,-2.8125 -0.0668,-0.729674 -0.0404,-1.105555 -0.28125,-1.8125 -2.15407,-6.321672 -7.63438,-11.177699 -14.375,-12.875 -0.58932,-0.148388 -0.97858,-0.138675 -1.6875,-0.1875 -0.70892,-0.04883 -1.61738,-0.112584 -2.75,-0.15625 -2.26525,-0.08733 -5.3693,-0.176351 -9.21875,-0.25 -7.6989,-0.147297 -18.35454,-0.247824 -30.96875,-0.34375 -25.22843,-0.191852 -58.33,-0.289843 -91.4375,-0.28125 z m 0,4 c 33.09954,-0.0086 66.1949,0.08953 91.40625,0.28125 12.60568,0.09586 23.23589,0.196998 30.90625,0.34375 3.83518,0.07338 6.93813,0.164484 9.15625,0.25 1.10906,0.04276 2.01612,0.08091 2.65625,0.125 0.64013,0.04409 1.13196,0.142715 0.9375,0.09375 5.47478,1.378559 9.87837,5.369992 11.5625,10.3125 -0.1087,-0.319031 0.0352,0.204322 0.0937,0.84375 0.0585,0.639428 0.12916,1.559306 0.1875,2.6875 0.11669,2.256387 0.23996,5.419543 0.34375,9.34375 0.20758,7.848414 0.38224,18.726265 0.53125,31.65625 0.29801,25.859967 0.48548,59.869637 0.53125,93.874997 0.0458,34.00536 -0.053,68.00952 -0.28125,93.96875 -0.11414,12.97962 -0.25111,23.95186 -0.4375,31.875 -0.0932,3.96157 -0.20185,7.16786 -0.3125,9.46875 -0.0553,1.15045 -0.13036,2.08448 -0.1875,2.75 -0.0571,0.66552 -0.15346,1.1993 -0.0937,1 -1.30626,4.35992 -6.70261,9.75623 -11.0625,11.0625 0.34472,-0.10328 -0.22197,0.0166 -0.84375,0.0625 -0.62178,0.0459 -1.49168,0.0802 -2.59375,0.125 -2.20413,0.0896 -5.30348,0.17288 -9.15625,0.25 -7.70554,0.15425 -18.45461,0.30498 -31.1875,0.40625 -25.46578,0.20255 -58.95232,0.28887 -92.4375,0.28125 -33.48518,-0.008 -66.94986,-0.12958 -92.375,-0.34375 C 71.381181,330.6926 60.674958,330.58247 53,330.42468 c -3.837479,-0.0789 -6.907799,-0.19061 -9.09375,-0.28125 -1.092976,-0.0453 -1.982615,-0.079 -2.59375,-0.125 -0.611135,-0.046 -1.193271,-0.19385 -0.78125,-0.0625 -1.851211,-0.59016 -4.26631,-2.24464 -6.28125,-4.34375 -2.01494,-2.09911 -3.644939,-4.63673 -4.25,-6.65625 0.09159,0.30569 -0.01339,-0.26804 -0.0625,-0.90625 -0.04911,-0.63821 -0.108164,-1.53202 -0.15625,-2.65625 -0.09617,-2.24846 -0.19802,-5.39584 -0.28125,-9.3125 -0.16646,-7.83332 -0.295095,-18.73564 -0.40625,-31.65625 C 28.871439,248.58345 28.75,214.61163 28.75,180.64343 c 0,-33.9682 0.121439,-67.90877 0.34375,-93.749997 0.111155,-12.920613 0.23979,-23.822927 0.40625,-31.65625 0.08323,-3.916661 0.185078,-7.064041 0.28125,-9.3125 0.04809,-1.124229 0.107137,-2.018037 0.15625,-2.65625 0.04911,-0.638213 0.154088,-1.211942 0.0625,-0.90625 1.437933,-4.799399 6.783456,-9.866767 11.65625,-11.09375 -0.192019,0.04835 0.327993,-0.04916 0.96875,-0.09375 0.640757,-0.04459 1.515269,-0.08135 2.625,-0.125 2.219462,-0.0873 5.319456,-0.173539 9.15625,-0.25 7.673588,-0.152922 18.328373,-0.269676 30.9375,-0.375 25.21825,-0.210648 58.30694,-0.33516 91.40625,-0.34375 z"
         style="font-size:medium;font-style:normal;font-variant:normal;font-weight:normal;font-stretch:normal;text-indent:0;text-align:start;text-decoration:none;line-height:normal;letter-spacing:normal;word-spacing:normal;text-transform:none;direction:ltr;block-progression:tb;writing-mode:lr-tb;text-anchor:start;baseline-shift:baseline;color:#000000;fill:#000000;fill-opacity:1;stroke:none;stroke-width:4;marker:none;visibility:visible;display:inline;overflow:visible;enable-background:accumulate;font-family:Sans;-inkscape-font-specification:Sans" />
    </g>
  </g>
</svg>
